<svg width="36" height="36" viewBox="0 0 36 36" fill="none" xmlns="http://www.w3.org/2000/svg">
<g clip-path="url(#clip0)">
<path d="M31.2142 36C29.9208 36 28.689 35.5035 27.7959 34.5724C26.872 33.6414 26.3793 32.4311 26.3793 31.1276C26.3793 29.8242 26.872 28.6138 27.7959 27.6828C28.7198 26.7517 29.9208 26.2552 31.2142 26.2552C32.5076 26.2552 33.7086 26.7517 34.6325 27.6828C36.511 29.5759 36.511 32.6793 34.6325 34.5724C33.7086 35.5035 32.5076 36 31.2142 36Z" fill="#5E72EB"/>
<path d="M4.8349 9.74483C3.54149 9.74483 2.30967 9.24828 1.4166 8.31724C0.492729 7.38621 0 6.17586 0 4.87241C0 3.56897 0.492729 2.35862 1.4166 1.42759C2.34046 0.496552 3.54149 0 4.8349 0C6.12831 0 7.32934 0.496552 8.25321 1.42759C9.17707 2.35862 9.6698 3.56897 9.6698 4.87241C9.6698 6.17586 9.17707 7.41724 8.25321 8.31724C7.36014 9.21724 6.12831 9.74483 4.8349 9.74483Z" fill="#5E72EB"/>
<path d="M31.2065 9.74483C29.9131 9.74483 28.6813 9.24828 27.7882 8.31724C25.9097 6.42414 25.9097 3.32069 27.7882 1.42759C28.7121 0.496552 29.9131 0 31.2065 0C32.4999 0 33.701 0.496552 34.6248 1.42759C36.5033 3.32069 36.5033 6.42414 34.6248 8.31724C33.701 9.24828 32.4999 9.74483 31.2065 9.74483Z" fill="#5E72EB"/>
<path d="M4.83491 36C3.5415 36 2.30967 35.5035 1.4166 34.5724C0.492736 33.6414 7.62939e-06 32.431 7.62939e-06 31.1276C7.62939e-06 29.8241 0.492736 28.6138 1.4166 27.6828C1.60138 27.4966 1.81695 27.3104 2.09411 27.1241C2.18649 27.0621 2.27888 27 2.34047 26.969C2.52524 26.8759 2.71002 26.7828 2.86399 26.6897C2.95638 26.6586 3.04877 26.5966 3.14115 26.5655C3.32593 26.5035 3.5107 26.4414 3.72627 26.3793C3.75706 26.3793 3.81866 26.3483 3.84945 26.3483C3.88025 26.3483 3.91104 26.3483 3.91104 26.3173L4.98889 26.2552C5.11207 26.2552 5.26605 26.2862 5.42002 26.2862H5.48162C5.51241 26.2862 5.574 26.2862 5.6048 26.2862H5.63559H5.69718H5.72798C5.82037 26.2862 5.88196 26.2862 5.97434 26.2862C7.82208 26.2862 9.66981 25.4793 10.994 24.1138C12.3182 22.7172 13.0573 20.8552 13.0265 18.9931V18.931V18.869C13.0265 18.8069 13.0265 18.7759 12.9957 18.7138C12.9957 18.6517 12.9957 18.5897 12.9649 18.5276V18.4035C12.9649 18.3104 12.9341 18.2173 12.9341 18.1241L13.0265 17.0379C13.0265 17.0069 13.0265 16.9759 13.0573 16.9448L13.0881 16.8828C13.1497 16.6655 13.1805 16.4793 13.2729 16.2621C13.3037 16.1379 13.3653 16.0759 13.3961 15.9828C13.4885 15.7966 13.5808 15.6104 13.6732 15.4552C13.704 15.3931 13.7656 15.3 13.8272 15.2379C14.012 14.9586 14.1968 14.7414 14.3815 14.5552C15.3054 13.6241 16.5064 13.1276 17.7998 13.1276C19.0932 13.1276 20.3251 13.6241 21.2181 14.5552C23.0967 16.4483 23.0967 19.5517 21.2181 21.4448C21.0334 21.631 20.8178 21.8173 20.5406 22.0035C20.4483 22.0655 20.3867 22.0966 20.2943 22.1586C20.1095 22.2517 19.9555 22.3448 19.7708 22.4379C19.6784 22.469 19.586 22.531 19.4936 22.5621C19.3088 22.6241 19.124 22.6862 18.9085 22.7483L18.7853 22.7793C18.7545 22.7793 18.7237 22.8104 18.6929 22.8104L17.6151 22.9035C17.4919 22.9035 17.3687 22.8724 17.2147 22.8724H17.1223C17.0915 22.8724 17.0299 22.8724 16.9992 22.8724H16.9684H16.9068H16.876C16.7836 22.8724 16.722 22.8724 16.6296 22.8724C14.7819 22.8724 12.9341 23.6793 11.6099 25.0448C10.2857 26.4414 9.54663 28.3035 9.57742 30.1655V30.2276V30.2897C9.57742 30.3517 9.57742 30.3828 9.60822 30.4448C9.60822 30.5069 9.60822 30.569 9.63902 30.631C9.63902 30.6621 9.63902 30.7241 9.66981 30.7862C9.66981 30.8483 9.70061 30.9414 9.70061 31.0035V31.0345L9.60822 32.0897C9.60822 32.1207 9.57742 32.2448 9.54663 32.2759C9.48504 32.4931 9.42345 32.7104 9.36185 32.8655C9.33106 32.9586 9.30026 33.0517 9.23867 33.1448C9.14629 33.331 9.0539 33.5173 8.96151 33.7035C8.93072 33.7655 8.86913 33.8586 8.80754 33.9517C8.62276 34.2 8.43799 34.4483 8.25322 34.6345C7.36014 35.5035 6.12832 36 4.83491 36Z" fill="#5E72EB"/>
<path d="M18.0462 36C16.7528 36 15.521 35.5034 14.6279 34.5724C13.704 33.6414 13.2113 32.431 13.2113 31.1276C13.2113 29.8241 13.704 28.6138 14.6279 27.6827C14.8127 27.4965 15.0282 27.3103 15.3054 27.1241C15.367 27.062 15.4594 27.031 15.521 26.9689C15.7057 26.8758 15.8597 26.7827 16.0445 26.6896C16.1369 26.6586 16.2293 26.5965 16.3216 26.5655C16.5064 26.5034 16.6912 26.4414 16.9068 26.3793L17.0915 26.3172L18.2002 26.2241C18.3234 26.2241 18.4773 26.2551 18.6005 26.2551H18.6929C18.7545 26.2551 18.7853 26.2551 18.8469 26.2551C18.8777 26.2551 18.8777 26.2551 18.9085 26.2551H18.9393H18.9701C19.0625 26.2551 19.124 26.2551 19.2164 26.2551C21.0642 26.2551 22.9119 25.4482 24.2361 24.0827C25.5603 22.6862 26.2994 20.8241 26.2686 18.962V18.7448L26.2378 18.7138V18.6827C26.2378 18.6207 26.2378 18.5896 26.2378 18.5276L26.207 18.3724C26.207 18.2793 26.1762 18.1862 26.1762 18.1241L26.2378 17.0689C26.2378 17.0379 26.2686 16.9138 26.2994 16.8827C26.361 16.6345 26.4226 16.4483 26.4842 16.2931C26.515 16.2 26.5458 16.1069 26.6074 16.0138C26.6997 15.8586 26.7613 15.6724 26.8845 15.4862L26.9153 15.4552C26.9461 15.3931 26.9769 15.331 27.0385 15.2689C27.2233 14.9896 27.408 14.7724 27.5928 14.5862C28.5167 13.6552 29.7177 13.1586 31.0111 13.1586C32.3045 13.1586 33.5056 13.6552 34.4294 14.5862C36.308 16.4793 36.308 19.5827 34.4294 21.4758C34.2447 21.662 34.0291 21.8483 33.7519 22.0345C33.6903 22.0655 33.6595 22.0965 33.598 22.1276L33.5056 22.1896C33.3516 22.2827 33.1668 22.3758 32.982 22.4689C32.8897 22.5 32.7973 22.562 32.7049 22.5931C32.5201 22.6551 32.3353 22.7172 32.1198 22.7793C32.0582 22.7793 32.0274 22.8103 31.9966 22.8103C31.9658 22.8103 31.935 22.8103 31.935 22.8414L30.8571 22.9034C30.7032 22.9034 30.5184 22.8724 30.3644 22.8414C30.3028 22.8414 30.272 22.8414 30.2104 22.8414C30.1796 22.8414 30.1796 22.8414 30.1488 22.8414H30.0565C29.9641 22.8414 29.9025 22.8414 29.8101 22.8414C27.9624 22.8414 26.1146 23.6483 24.7904 25.0138C23.4662 26.4103 22.7271 28.2724 22.7887 30.1345V30.1965V30.2586C22.7887 30.3207 22.7887 30.3827 22.8195 30.4138C22.8195 30.4758 22.8195 30.5379 22.8195 30.5689C22.8195 30.6 22.8195 30.662 22.8503 30.7241C22.8503 30.8172 22.8811 30.8793 22.8811 30.9724L22.7887 32.0586C22.7887 32.0896 22.7271 32.2138 22.7271 32.2138C22.6655 32.431 22.6039 32.6482 22.5423 32.8345C22.5116 32.9276 22.4808 33.0207 22.4192 33.0827V33.1138C22.3268 33.3 22.2344 33.4551 22.142 33.6414C22.0804 33.7345 22.0496 33.7965 21.988 33.8896C21.8033 34.1689 21.6185 34.3862 21.4337 34.5724C20.5406 35.5034 19.3396 36 18.0462 36Z" fill="#5E72EB"/>
<path d="M4.95807 22.8414C3.66466 22.8414 2.46363 22.3138 1.53977 21.4138C0.615902 20.4828 0.123173 19.2724 0.123173 17.969C0.123173 16.6655 0.615902 15.4552 1.53977 14.5241C1.72454 14.3379 1.94011 14.1517 2.21727 13.9655C2.27886 13.9034 2.37125 13.8724 2.46363 13.8103C2.61761 13.7172 2.80239 13.6241 2.98716 13.531C3.07955 13.5 3.17193 13.4379 3.26432 13.4069C3.44909 13.3448 3.63387 13.2828 3.84943 13.2517L3.97262 13.2207C4.00341 13.2207 4.00341 13.2207 4.03421 13.1897L5.14285 13.0966C5.29683 13.0966 5.4508 13.1276 5.60478 13.1586H5.63558C5.69717 13.1586 5.72796 13.1586 5.78955 13.1586C5.82035 13.1586 5.82035 13.1586 5.85115 13.1586H5.91274H5.94353C6.03592 13.1586 6.09751 13.1586 6.1899 13.1586C8.03763 13.1586 9.88536 12.3517 11.2096 10.9862C12.5338 9.58966 13.2729 7.72759 13.2113 5.86552V5.80345V5.74138C13.2113 5.67931 13.2113 5.61724 13.1805 5.55517C13.1805 5.4931 13.1805 5.46207 13.1805 5.4L13.1497 5.27586C13.1497 5.18276 13.1189 5.08966 13.1189 4.99655L13.1805 3.97241V3.94138V3.91035C13.1805 3.87931 13.2113 3.75517 13.2113 3.75517C13.2729 3.5069 13.3345 3.28966 13.3961 3.13448C13.4269 3.04138 13.4884 2.94828 13.5192 2.85517C13.6116 2.66897 13.704 2.51379 13.7964 2.32759L13.8272 2.29655C13.858 2.26552 13.9196 2.17241 13.9504 2.11034C14.1351 1.83103 14.3199 1.61379 14.5047 1.42759C15.4286 0.496552 16.6296 0 17.923 0C19.2164 0 20.4482 0.496552 21.3413 1.42759C23.2198 3.32069 23.2198 6.42414 21.3413 8.31724C21.1565 8.50345 20.941 8.68966 20.6638 8.87586C20.6022 8.93793 20.5406 8.96897 20.4482 9L20.4174 9.03104C20.2327 9.12414 20.0787 9.21724 19.8939 9.31035C19.8015 9.34138 19.7091 9.40345 19.6168 9.43448C19.432 9.49655 19.2472 9.55862 19.0316 9.62069C19.0008 9.62069 18.9393 9.65172 18.9085 9.65172C18.8777 9.65172 18.8469 9.65172 18.8469 9.68276L17.769 9.74483C17.6458 9.74483 17.4919 9.71379 17.3379 9.71379H17.2763C17.2147 9.71379 17.1839 9.71379 17.1223 9.71379C17.0915 9.71379 17.0915 9.71379 17.0607 9.71379H17.0299H16.9683C16.876 9.71379 16.8144 9.71379 16.722 9.71379C14.8742 9.71379 13.0265 10.5207 11.7023 11.8862C10.3781 13.2828 9.639 15.1448 9.66979 17.0069V17.069V17.131C9.66979 17.1931 9.66979 17.2552 9.70059 17.2862C9.70059 17.3483 9.70059 17.4103 9.70059 17.4724C9.70059 17.5034 9.70059 17.5655 9.73138 17.6276C9.73138 17.7207 9.76218 17.7828 9.76218 17.8759L9.66979 18.931C9.66979 18.9621 9.66979 18.9931 9.639 19.0241L9.6082 19.1172C9.54661 19.3655 9.48502 19.5517 9.42343 19.7379C9.39263 19.831 9.33104 19.9241 9.30025 20.0172C9.20786 20.2034 9.11547 20.3586 9.02309 20.5448C8.9615 20.6379 8.9307 20.7 8.86911 20.7931C8.68434 21.0724 8.49956 21.2897 8.31479 21.4759C7.48331 22.3138 6.25149 22.8414 4.95807 22.8414Z" fill="#5E72EB"/>
</g>
<defs>
<clipPath id="clip0">
<rect width="36" height="36" fill="white"/>
</clipPath>
</defs>
</svg>
